PathFileType  4	(X/Y/Z) C:\Users\antoi\Documents\MyRepositories\mobilecap\ResultsAnalysis
DataRate	CameraRate	NumFrames	NumMarkers	Units	OrigDataRate	OrigDataStartFrame	OrigNumFrames
100.0	100.0	5	55	mm	100.0	151	601
Frame#	Time	r_knee			r_shank_antsup			r_ankle			r_calc			r_5meta			r_toe			L_knee			L_shank_antsup			L_ankle			L_calc			L_5meta			L_toe			r_mknee			r_mankle			L_mknee			L_mankle			r_sh2			r_sh3			r_sh4			L_sh2			L_sh3			r_thigh1			r_thigh2			r_thigh3			r_thigh4			r_thigh5			L_thigh1			L_thigh2			L_thigh3			L_thigh4			r.ASIS			r.PSIS			L.ASIS			L.PSIS			C7			R_Shoulder			L_Shoulder			R_Sternum			L_Sternum			R_humerus			R_elbow_med			R_elbow_lat			R_forearm			R_wrist_radius			R_wrist_ulna			L_humerus			L_elbow_med			L_elbow_lat			L_forearm			L_wrist_radius			L_wrist_ulna			R_HJC			L_HJC			R_HJC_reg			L_HJC_reg			
		X1	Y1	Z1	X2	Y2	Z2	X3	Y3	Z3	X4	Y4	Z4	X5	Y5	Z5	X6	Y6	Z6	X7	Y7	Z7	X8	Y8	Z8	X9	Y9	Z9	X10	Y10	Z10	X11	Y11	Z11	X12	Y12	Z12	X13	Y13	Z13	X14	Y14	Z14	X15	Y15	Z15	X16	Y16	Z16	X17	Y17	Z17	X18	Y18	Z18	X19	Y19	Z19	X20	Y20	Z20	X21	Y21	Z21	X22	Y22	Z22	X23	Y23	Z23	X24	Y24	Z24	X25	Y25	Z25	X26	Y26	Z26	X27	Y27	Z27	X28	Y28	Z28	X29	Y29	Z29	X30	Y30	Z30	X31	Y31	Z31	X32	Y32	Z32	X33	Y33	Z33	X34	Y34	Z34	X35	Y35	Z35	X36	Y36	Z36	X37	Y37	Z37	X38	Y38	Z38	X39	Y39	Z39	X40	Y40	Z40	X41	Y41	Z41	X42	Y42	Z42	X43	Y43	Z43	X44	Y44	Z44	X45	Y45	Z45	X46	Y46	Z46	X47	Y47	Z47	X48	Y48	Z48	X49	Y49	Z49	X50	Y50	Z50	X51	Y51	Z51	X52	Y52	Z52	X53	Y53	Z53	X54	Y54	Z54	X55	Y55	Z55	

151	1.50000000	-195.39151	547.71753	-438.98449	-169.45278	451.65988	-445.94534	-274.17973	122.70549	-468.25255	-356.43930	74.30064	-516.23530	-166.21921	47.67781	-415.61475	-104.11326	74.03672	-475.40247	-191.93539	548.62954	-778.06026	-198.08552	459.93989	-802.38841	-259.17162	125.65534	-752.90105	-342.24003	74.73036	-701.70306	-148.22251	50.51630	-784.46807	-90.00299	76.06936	-720.19549	-185.26097	534.68470	-573.43729	-239.74442	134.07804	-557.69419	-180.75589	541.57423	-642.03343	-237.90230	130.72303	-656.32336	-199.21727	344.59012	-420.81426	-231.12066	476.83992	-408.46031	-275.88651	370.80822	-402.60137	-287.61027	472.56650	-795.70546	-290.62374	350.35676	-792.66159	-97.75594	866.94281	-419.06181	-103.49562	756.67892	-424.37592	-161.65485	733.88761	-400.55896	-210.70223	868.17683	-416.19444	-210.24779	753.16799	-420.75494	-87.86396	831.67924	-784.22077	-94.06340	691.45357	-773.02289	-197.41310	834.59823	-800.98729	-206.68731	697.71817	-795.72626	-83.59905	1083.89159	-465.08422	-260.09433	1094.46830	-544.65600	-70.06965	1087.17189	-716.55603	-255.79955	1093.26620	-652.91094	-242.59728	1630.89078	-596.47887	-167.69237	1573.65743	-429.08467	-186.71672	1575.61282	-769.96319	-111.19860	1559.77961	-569.16293	-113.83344	1557.12767	-626.34625	-146.30593	1418.16731	-358.50721	-206.34521	1210.71078	-387.47464	-198.63872	1234.99706	-307.79847	-131.29666	1080.18723	-261.54763	-83.04753	995.00780	-255.84638	-126.82178	997.44014	-239.00087	-199.81706	1449.57370	-848.69604	-211.47342	1209.46897	-807.55096	-212.44360	1229.47253	-885.06451	-167.22152	1178.47495	-925.16375	-99.08178	1014.63500	-958.14284	-138.85407	1004.03451	-962.92792	-156.95054	965.96099	-491.08306	-151.41044	974.08620	-697.81005	-139.22633	1003.63807	-501.89685	-132.63745	1001.79416	-667.98129	
152	1.51000000	-195.42795	547.64143	-439.02005	-169.43675	451.68560	-445.93807	-274.18273	122.69662	-468.27459	-356.45925	74.30649	-516.28129	-166.21564	47.70717	-415.57818	-104.10710	74.03067	-475.40380	-191.91311	548.62083	-778.09627	-198.08208	459.92261	-802.40226	-259.16274	125.59555	-752.81700	-342.26885	74.72575	-701.72707	-148.22737	50.50387	-784.46893	-90.05114	76.03238	-720.23558	-185.25091	534.70987	-573.39903	-239.73791	134.09212	-557.64597	-180.75823	541.57480	-642.03395	-237.90728	130.71427	-656.31172	-199.22927	344.55343	-420.77099	-231.16343	476.79603	-408.49053	-275.89568	370.76254	-402.59974	-287.59888	472.54985	-795.71805	-290.61727	350.33497	-792.67409	-97.64591	866.96094	-419.11579	-103.48358	756.71741	-424.41098	-161.71128	733.88572	-400.57312	-210.68474	868.21228	-416.19518	-210.21026	753.19646	-420.72265	-87.89543	831.64344	-784.16327	-94.05846	691.40232	-772.96561	-197.39766	834.57888	-800.98989	-206.66453	697.70540	-795.72912	-83.59594	1083.89303	-465.09501	-260.10736	1094.48346	-544.73996	-70.05799	1087.15025	-716.56452	-255.92289	1093.34802	-652.80542	-242.58275	1630.89967	-596.51796	-167.68281	1573.65284	-429.17711	-186.71790	1575.59488	-769.98628	-111.17612	1559.78765	-569.19192	-113.82852	1557.13753	-626.37392	-146.28991	1418.20005	-358.57213	-206.23033	1210.74804	-387.57076	-198.57941	1235.06249	-307.76874	-131.25290	1080.20813	-261.61783	-83.02923	995.03160	-255.88843	-126.74882	997.50026	-239.01303	-199.80248	1449.55254	-848.71230	-211.44781	1209.51394	-807.53903	-212.43514	1229.44425	-885.06253	-167.21320	1178.47310	-925.21649	-99.12010	1014.59625	-958.18214	-138.90780	1003.95279	-962.88725	-157.00605	965.97376	-491.08763	-151.48942	974.10365	-697.81506	-139.14022	1003.56785	-501.89670	-132.70908	1001.82269	-667.98708	
153	1.52000000	-195.45039	547.64950	-439.05006	-169.44856	451.74192	-445.94351	-274.15950	122.69204	-468.24629	-356.45842	74.31388	-516.32434	-166.20157	47.75351	-415.54319	-104.09734	74.04208	-475.43450	-191.91912	548.59336	-778.07469	-198.07292	459.90978	-802.41559	-259.15850	125.54199	-752.75021	-342.28105	74.70298	-701.72477	-148.23197	50.49415	-784.47331	-90.14389	75.98275	-720.34808	-185.26853	534.74439	-573.36315	-239.73911	134.09627	-557.61045	-180.76521	541.58046	-642.03527	-237.90903	130.70867	-656.30369	-199.27343	344.51087	-420.74628	-231.15134	476.88022	-408.48523	-275.95244	370.68001	-402.59297	-287.58338	472.53425	-795.73096	-290.62388	350.33496	-792.72021	-97.64812	866.95563	-419.12131	-103.43940	756.72972	-424.41922	-161.81255	733.85553	-400.59999	-210.66340	868.26604	-416.19117	-210.19622	753.20518	-420.69580	-87.85892	831.67481	-784.20040	-94.04522	691.41378	-773.01073	-197.37242	834.52777	-800.97870	-206.65477	697.69020	-795.73086	-83.59560	1083.88292	-465.08772	-260.07465	1094.49678	-544.74656	-70.04439	1087.12289	-716.57408	-255.94647	1093.34108	-652.79293	-242.56433	1630.90661	-596.56222	-167.72301	1573.66729	-429.33240	-186.72388	1575.56982	-770.03168	-111.16988	1559.80375	-569.23784	-113.81068	1557.13495	-626.41248	-146.27754	1418.20973	-358.62151	-206.14985	1210.76495	-387.63198	-198.53471	1235.12196	-307.74629	-131.22207	1080.23475	-261.67176	-82.99738	995.05478	-255.94312	-126.71831	997.51096	-239.06266	-199.79087	1449.52594	-848.72747	-211.43043	1209.54371	-807.53338	-212.42147	1229.40688	-885.07923	-167.18935	1178.47955	-925.27451	-99.16237	1014.57453	-958.22957	-138.94892	1003.89265	-962.86720	-157.01234	965.97319	-491.07693	-151.50169	974.08541	-697.80521	-139.10921	1003.57530	-501.84551	-132.76281	1001.79850	-667.95031	
154	1.53000000	-195.45498	547.74626	-439.06609	-169.49103	451.73929	-445.96588	-274.13517	122.69941	-468.21547	-356.42402	74.33941	-516.36538	-166.18181	47.78735	-415.50612	-104.07953	74.05126	-475.45543	-191.91068	548.57883	-778.08576	-198.06291	459.88854	-802.40946	-259.16246	125.55097	-752.80363	-342.26783	74.69737	-701.73586	-148.23421	50.48245	-784.47938	-90.13205	76.02351	-720.48664	-185.31949	534.78586	-573.36751	-239.74851	134.08149	-557.62181	-180.77131	541.58548	-642.03862	-237.90605	130.69869	-656.30126	-199.29945	344.51576	-420.73793	-231.09423	477.00789	-408.42166	-275.92499	370.71876	-402.61986	-287.56686	472.51863	-795.74579	-290.59865	350.33695	-792.74292	-97.68222	866.95174	-419.11700	-103.45705	756.70850	-424.41566	-161.82238	733.83805	-400.60443	-210.65393	868.31052	-416.18427	-210.21617	753.19477	-420.71412	-87.78289	831.73968	-784.30236	-94.02694	691.44198	-773.08437	-197.33466	834.46026	-800.94708	-206.63944	697.67399	-795.75190	-83.57512	1083.88904	-465.07246	-260.00863	1094.48950	-544.75934	-70.02383	1087.09942	-716.59726	-255.89394	1093.34347	-652.83252	-242.56330	1630.91478	-596.63129	-167.74746	1573.72717	-429.39700	-186.72626	1575.53379	-770.12253	-111.15726	1559.82271	-569.29689	-113.79566	1557.13837	-626.48141	-146.26096	1418.21916	-358.65422	-206.10605	1210.74225	-387.64293	-198.51064	1235.15859	-307.74090	-131.18830	1080.27901	-261.70164	-82.96324	995.06582	-256.00621	-126.70526	997.51854	-239.11187	-199.77999	1449.50303	-848.74711	-211.44398	1209.50885	-807.54872	-212.39972	1229.37914	-885.13558	-167.18990	1178.43605	-925.27351	-99.20228	1014.55904	-958.29120	-138.97353	1003.86162	-962.89168	-156.98299	965.97621	-491.08071	-151.46276	974.07008	-697.80946	-139.06107	1003.54097	-501.83547	-132.73620	1001.77938	-667.96627	
155	1.54000000	-195.45584	547.79248	-439.07155	-169.50824	451.70704	-445.98517	-274.13513	122.69148	-468.21428	-356.37684	74.38792	-516.42017	-166.17640	47.77721	-415.49489	-104.09404	74.03226	-475.46598	-191.86664	548.59054	-778.20103	-198.05053	459.87019	-802.40228	-259.16856	125.59174	-752.90809	-342.25610	74.68671	-701.74968	-148.23655	50.47130	-784.48175	-90.05419	76.07295	-720.50168	-185.34966	534.80072	-573.39848	-239.75632	134.05923	-557.64256	-180.77024	541.58427	-642.04073	-237.89783	130.68696	-656.30004	-199.27517	344.56493	-420.74967	-231.04838	477.04737	-408.35672	-275.90840	370.75371	-402.63996	-287.55313	472.50710	-795.75932	-290.54605	350.31090	-792.75119	-97.67295	866.95236	-419.12997	-103.54442	756.69622	-424.45793	-161.73455	733.83432	-400.58405	-210.60891	868.31547	-416.18326	-210.21959	753.19294	-420.75838	-87.73844	831.76663	-784.36217	-94.00880	691.43526	-773.09848	-197.30607	834.42750	-800.95571	-206.61443	697.65767	-795.77789	-83.54633	1083.90158	-465.07506	-259.95264	1094.48077	-544.80105	-69.99921	1087.08566	-716.61243	-255.88363	1093.38984	-652.83030	-242.57689	1630.93112	-596.71391	-167.70946	1573.77210	-429.37615	-186.72319	1575.49605	-770.21849	-111.11505	1559.83614	-569.34139	-113.80422	1557.18413	-626.59380	-146.23477	1418.24808	-358.68806	-206.05285	1210.73926	-387.63755	-198.49093	1235.17663	-307.74810	-131.14049	1080.32737	-261.70478	-82.94487	995.07742	-256.05997	-126.66900	997.55821	-239.13000	-199.76942	1449.48631	-848.76955	-211.46123	1209.45699	-807.57006	-212.38084	1229.36053	-885.18382	-167.20655	1178.37491	-925.25538	-99.23036	1014.53856	-958.33728	-138.99950	1003.84386	-962.95287	-156.96531	965.98495	-491.09423	-151.44720	974.07663	-697.82312	-138.97117	1003.47312	-501.85530	-132.71358	1001.79548	-667.99743	
